{
  "accessors": [
    {
      "bufferView": 0,
      "byteOffset": 0,
      "componentType": 5126,
      "normalized": false,
      "count": 118801,
      "type": "VEC3",
      "max": [
        0.46952900290489197,
        0.999081015586853,
        0.2496339976787567
      ],
      "min": [
        -0.470566987991333,
        -1.0017199516296387,
        -0.2517719864845276
      ]
    },
    {
      "bufferView": 1,
      "byteOffset": 0,
      "componentType": 5126,
      "normalized": false,
      "count": 118801,
      "type": "VEC3"
    },
    {
      "bufferView": 2,
      "byteOffset": 0,
      "componentType": 5126,
      "normalized": false,
      "count": 118801,
      "type": "VEC2"
    },
    {
      "bufferView": 3,
      "byteOffset": 0,
      "componentType": 5125,
      "normalized": false,
      "count": 596841,
      "type": "SCALAR"
    }
  ],
  "asset": {
    "generator": "pygltflib@v1.16.2",
    "version": "2.0"
  },
  "bufferViews": [
    {
      "buffer": 0,
      "byteOffset": 0,
      "byteLength": 1425612,
      "target": 34962
    },
    {
      "buffer": 0,
      "byteOffset": 1425612,
      "byteLength": 1425612,
      "target": 34962
    },
    {
      "buffer": 0,
      "byteOffset": 2851224,
      "byteLength": 950408,
      "target": 34962
    },
    {
      "buffer": 0,
      "byteOffset": 3801632,
      "byteLength": 2387364,
      "target": 34963
    },
    {
      "buffer": 0,
      "byteOffset": 6188996,
      "byteLength": 1417180
    }
  ],
  "buffers": [
    {
      "uri": "Warrior_Stance_0921065251.bin",
      "byteLength": 7606176
    }
  ],
  "images": [
    {
      "mimeType": "image/png",
      "bufferView": 4,
      "name": "tex_base_color_1"
    }
  ],
  "materials": [
    {
      "pbrMetallicRoughness": {
        "baseColorFactor": [
          1.0,
          1.0,
          1.0,
          1.0
        ],
        "metallicFactor": 0.0,
        "roughnessFactor": 0.800000011920929,
        "baseColorTexture": {
          "index": 0,
          "texCoord": 0
        }
      },
      "emissiveFactor": [
        0.0,
        0.0,
        0.0
      ],
      "alphaMode": "OPAQUE",
      "alphaCutoff": 0.5,
      "doubleSided": true,
      "name": "Material_0.002"
    }
  ],
  "meshes": [
    {
      "primitives": [
        {
          "attributes": {
            "POSITION": 0,
            "NORMAL": 1,
            "TEXCOORD_0": 2
          },
          "indices": 3,
          "mode": 4,
          "material": 0
        }
      ],
      "name": "Mesh_0.002"
    }
  ],
  "nodes": [
    {
      "mesh": 0,
      "name": "Mesh_0.002"
    }
  ],
  "samplers": [
    {
      "magFilter": 9729,
      "minFilter": 9987,
      "wrapS": 10497,
      "wrapT": 10497
    }
  ],
  "scene": 0,
  "scenes": [
    {
      "name": "Scene",
      "nodes": [
        0
      ]
    }
  ],
  "textures": [
    {
      "sampler": 0,
      "source": 0
    }
  ]
}